<?xml version="1.0" standalone="no"?><!-- Generator: Gravit.io --><svg xmlns="http://www.w3.org/2000/svg" xmlns:xlink="http://www.w3.org/1999/xlink" style="isolation:isolate" viewBox="0 0 571.266 571.266" width="571.266" height="571.266"><defs><clipPath id="_clipPath_7uIp0OdfytRRIWi4nP3NPAnmyD51DCJk"><rect width="571.266" height="571.266"/></clipPath></defs><g clip-path="url(#_clipPath_7uIp0OdfytRRIWi4nP3NPAnmyD51DCJk)"><g id="Group"><g id="Group"><g id="Group"><g id="Group"><rect x="216.62" y="56" width="99.744" height="70.656" transform="matrix(1,0,0,1,0,0)" fill="rgb(255,255,255)"/><path d="M 253.335 56 L 535.938 56 C 555.436 56 571.266 71.83 571.266 91.328 L 571.266 91.328 C 571.266 110.826 555.436 126.656 535.938 126.656 L 253.335 126.656 C 233.837 126.656 218.007 110.826 218.007 91.328 L 218.007 91.328 C 218.007 71.83 233.837 56 253.335 56 Z" style="stroke:none;fill:#FFFFFF;stroke-miterlimit:10;"/><path d=" M 352.426 126.656 C 322.619 83.956 273.122 56 217.147 56 C 126.155 56 52.282 129.873 52.282 220.865 L 52.282 220.865 C 52.282 311.856 126.155 385.73 217.147 385.73 C 273.122 385.73 322.619 357.773 352.426 315.073 L 216.62 315.073 C 164.625 315.073 122.411 272.86 122.411 220.865 L 122.411 220.865 C 122.411 168.87 164.625 126.656 216.62 126.656 L 352.426 126.656 Z " fill-rule="evenodd" fill="rgb(255,255,255)"/><rect x="216.763" y="315.073" width="71.799" height="70.656" transform="matrix(1,0,0,1,0,0)" fill="rgb(255,255,255)"/><path d="M 252.091 315.073 L 352.673 315.073 C 372.172 315.073 388.002 330.903 388.002 350.401 L 388.002 350.401 C 388.002 369.9 372.172 385.73 352.673 385.73 L 252.091 385.73 C 232.593 385.73 216.763 369.9 216.763 350.401 L 216.763 350.401 C 216.763 330.903 232.593 315.073 252.091 315.073 Z" style="stroke:none;fill:#FFFFFF;stroke-miterlimit:10;"/><rect x="251.961" y="444.61" width="99.744" height="70.656" transform="matrix(-1,0,0,-1,603.666,959.876)" fill="rgb(255,255,255)"/><path d="M 317.958 515.266 L 35.328 515.266 C 15.83 515.266 0 499.436 0 479.938 L 0 479.938 C 0 460.44 15.83 444.61 35.328 444.61 L 317.958 444.61 C 337.456 444.61 353.286 460.44 353.286 479.938 L 353.286 479.938 C 353.286 499.436 337.456 515.266 317.958 515.266 Z" style="stroke:none;fill:#FFFFFF;stroke-miterlimit:10;"/><path d=" M 218.007 444.61 C 247.814 487.31 297.311 515.266 353.286 515.266 C 444.277 515.266 518.151 441.393 518.151 350.401 L 518.151 350.401 C 518.151 259.41 444.277 185.537 353.286 185.537 C 297.311 185.537 247.814 213.493 218.007 256.193 L 351.705 256.193 C 403.7 256.193 445.914 298.406 445.914 350.401 L 445.914 350.401 C 445.914 402.396 403.7 444.61 351.705 444.61 L 218.007 444.61 Z " fill-rule="evenodd" fill="rgb(255,255,255)"/><rect x="279.764" y="185.537" width="71.799" height="70.656" transform="matrix(-1,0,0,-1,631.326,441.73)" fill="rgb(255,255,255)"/><path d="M 317.958 256.193 L 217.383 256.193 C 197.885 256.193 182.055 240.363 182.055 220.865 L 182.055 220.865 C 182.055 201.367 197.885 185.537 217.383 185.537 L 317.958 185.537 C 337.456 185.537 353.286 201.367 353.286 220.865 L 353.286 220.865 C 353.286 240.363 337.456 256.193 317.958 256.193 Z" style="stroke:none;fill:#FFFFFF;stroke-miterlimit:10;"/></g></g></g></g></g></svg>