<?xml version="1.0" standalone="no"?><!-- Generator: Gravit.io --><svg xmlns="http://www.w3.org/2000/svg" xmlns:xlink="http://www.w3.org/1999/xlink" style="isolation:isolate" viewBox="0 0 571.266 571.266" width="571.266" height="571.266"><defs><clipPath id="_clipPath_DHQKWC9nLcpGGarbd5nq2YysXDxOleHo"><rect width="571.266" height="571.266"/></clipPath></defs><g clip-path="url(#_clipPath_DHQKWC9nLcpGGarbd5nq2YysXDxOleHo)"><rect x="-0.006" y="-0.006" width="571.278" height="571.278" transform="matrix(1,0,0,1,0,0)" fill="rgb(40,150,110)"/><g id="Group"><g id="Group"><g id="Group"><g id="Group"><rect x="242.372" y="140.376" width="63.094" height="44.694" transform="matrix(1,0,0,1,0,0)" fill="rgb(255,255,255)"/><path d="M 264.809 140.376 L 443.572 140.376 C 455.906 140.376 465.919 150.39 465.919 162.724 L 465.919 162.724 C 465.919 175.057 455.906 185.071 443.572 185.071 L 264.809 185.071 C 252.475 185.071 242.462 175.057 242.462 162.724 L 242.462 162.724 C 242.462 150.39 252.475 140.376 264.809 140.376 Z" style="stroke:none;fill:#FFFFFF;stroke-miterlimit:10;"/><path d=" M 328.277 185.071 C 309.423 158.06 278.113 140.376 242.705 140.376 C 185.148 140.376 138.418 187.106 138.418 244.663 L 138.418 244.663 C 138.418 302.221 185.148 348.95 242.705 348.95 C 278.113 348.95 309.423 331.266 328.277 304.256 L 242.372 304.256 C 209.482 304.256 182.779 277.553 182.779 244.663 L 182.779 244.663 C 182.779 211.773 209.482 185.071 242.372 185.071 L 328.277 185.071 Z " fill-rule="evenodd" fill="rgb(255,255,255)"/><rect x="242.462" y="304.256" width="45.417" height="44.694" transform="matrix(1,0,0,1,0,0)" fill="rgb(255,255,255)"/><path d="M 264.809 304.256 L 328.434 304.256 C 340.767 304.256 350.781 314.269 350.781 326.603 L 350.781 326.603 C 350.781 338.937 340.767 348.95 328.434 348.95 L 264.809 348.95 C 252.475 348.95 242.462 338.937 242.462 326.603 L 242.462 326.603 C 242.462 314.269 252.475 304.256 264.809 304.256 Z" style="stroke:none;fill:#FFFFFF;stroke-miterlimit:10;"/><rect x="264.727" y="386.195" width="63.094" height="44.694" transform="matrix(-1,0,0,-1,592.548,817.085)" fill="rgb(255,255,255)"/><path d="M 306.474 430.89 L 127.694 430.89 C 115.36 430.89 105.347 420.876 105.347 408.543 L 105.347 408.543 C 105.347 396.209 115.36 386.195 127.694 386.195 L 306.474 386.195 C 318.808 386.195 328.821 396.209 328.821 408.543 L 328.821 408.543 C 328.821 420.876 318.808 430.89 306.474 430.89 Z" style="stroke:none;fill:#FFFFFF;stroke-miterlimit:10;"/><path d=" M 243.249 386.195 C 262.104 413.206 293.414 430.89 328.821 430.89 C 386.379 430.89 433.108 384.16 433.108 326.603 L 433.108 326.603 C 433.108 269.045 386.379 222.316 328.821 222.316 C 293.414 222.316 262.104 240 243.249 267.01 L 327.821 267.01 C 360.711 267.01 387.414 293.713 387.414 326.603 L 387.414 326.603 C 387.414 359.493 360.711 386.195 327.821 386.195 L 243.249 386.195 Z " fill-rule="evenodd" fill="rgb(255,255,255)"/><rect x="282.314" y="222.316" width="45.417" height="44.694" transform="matrix(-1,0,0,-1,610.045,489.326)" fill="rgb(255,255,255)"/><path d="M 306.474 267.01 L 242.854 267.01 C 230.521 267.01 220.507 256.997 220.507 244.663 L 220.507 244.663 C 220.507 232.329 230.521 222.316 242.854 222.316 L 306.474 222.316 C 318.808 222.316 328.821 232.329 328.821 244.663 L 328.821 244.663 C 328.821 256.997 318.808 267.01 306.474 267.01 Z" style="stroke:none;fill:#FFFFFF;stroke-miterlimit:10;"/></g></g></g></g></g></svg>